<svg width="31" height="30" viewBox="0 0 31 30" fill="none" xmlns="http://www.w3.org/2000/svg">
<path d="M25.5 14C26.0523 14 26.5 14.4477 26.5 15C26.5 15.5523 26.0523 16 25.5 16V14ZM4.29289 15.7071C3.90237 15.3166 3.90237 14.6834 4.29289 14.2929L10.6569 7.92893C11.0474 7.53841 11.6805 7.53841 12.0711 7.92893C12.4616 8.31946 12.4616 8.95262 12.0711 9.34315L6.41421 15L12.0711 20.6569C12.4616 21.0474 12.4616 21.6805 12.0711 22.0711C11.6805 22.4616 11.0474 22.4616 10.6569 22.0711L4.29289 15.7071ZM25.5 16H5V14H25.5V16Z" fill="#71716B"/>
</svg>
