<svg width="31" height="30" viewBox="0 0 31 30" fill="none" xmlns="http://www.w3.org/2000/svg">
<path d="M5.5 14C4.94772 14 4.5 14.4477 4.5 15C4.5 15.5523 4.94772 16 5.5 16V14ZM26.7071 15.7071C27.0976 15.3166 27.0976 14.6834 26.7071 14.2929L20.3431 7.92893C19.9526 7.53841 19.3195 7.53841 18.9289 7.92893C18.5384 8.31946 18.5384 8.95262 18.9289 9.34315L24.5858 15L18.9289 20.6569C18.5384 21.0474 18.5384 21.6805 18.9289 22.0711C19.3195 22.4616 19.9526 22.4616 20.3431 22.0711L26.7071 15.7071ZM5.5 16H26V14H5.5V16Z" fill="#71716B"/>
</svg>
