<svg width="88" height="87" viewBox="0 0 88 87" fill="none" xmlns="http://www.w3.org/2000/svg">
<g id="Frame 84">
<rect x="0.16687" width="87" height="87" rx="43.5" fill="#83C9B6"/>
<g id="Group 6">
<path id="Vector" d="M61.5259 46.1538C56.931 35.8154 60.5686 21.7436 62.9618 16H23.1669C25.56 21.7436 29.5053 37.2512 24.9104 47.5897C20.3155 57.9282 19.1669 68.1709 19.1669 72L67.2694 71.5C67.2695 67.6709 66.1208 56.4923 61.5259 46.1538Z" fill="white"/>
<path id="Vector 7" d="M29.2182 41.8462C32.4689 45.7231 37.0198 56.32 29.2182 67.6923" stroke="#83C9B6" stroke-dasharray="2 2"/>
<path id="Vector 8" d="M57.9361 41.8462C53.6018 45.7231 47.5339 56.32 57.9361 67.6923" stroke="#83C9B6" stroke-dasharray="2 2"/>
<path id="Vector 9" d="M33.5259 41.8462H53.6284" stroke="#83C9B6" stroke-dasharray="2 2"/>
<path id="Ellipse 5" d="M44.513 56.205C44.513 56.9373 44.3636 57.5755 44.1453 58.0121C43.912 58.4786 43.6822 58.5768 43.5771 58.5768C43.472 58.5768 43.2423 58.4786 43.009 58.0121C42.7907 57.5755 42.6412 56.9373 42.6412 56.205C42.6412 55.4728 42.7907 54.8346 43.009 54.398C43.2423 53.9314 43.472 53.8333 43.5771 53.8333C43.6822 53.8333 43.912 53.9314 44.1453 54.398C44.3636 54.8346 44.513 55.4728 44.513 56.205Z" stroke="#83C9B6"/>
</g>
</g>
</svg>
