<svg width="88" height="87" viewBox="0 0 88 87" fill="none" xmlns="http://www.w3.org/2000/svg">
<g id="Frame 84">
<rect x="0.500092" width="87" height="87" rx="43.5" fill="#83C9B6"/>
<g id="Group 7">
<rect id="Rectangle 10" x="17.0001" y="21.54" width="55" height="49.4" rx="8.5" fill="white" stroke="#83C9B6"/>
<rect id="Rectangle 12" x="23.2201" y="38.96" width="8.96" height="5.6" rx="2.8" fill="#83C9B6"/>
<rect id="Rectangle 16" x="23.2201" y="46.8" width="8.96" height="5.6" rx="2.8" fill="#83C9B6"/>
<rect id="Rectangle 20" x="23.2201" y="54.64" width="8.96" height="5.6" rx="2.8" fill="#83C9B6"/>
<rect id="Rectangle 13" x="34.4201" y="38.96" width="8.96" height="5.6" rx="2.8" fill="#83C9B6"/>
<rect id="Rectangle 17" x="34.4201" y="46.8" width="8.96" height="5.6" rx="2.8" fill="#83C9B6"/>
<rect id="Rectangle 21" x="34.4201" y="54.64" width="8.96" height="5.6" rx="2.8" fill="#83C9B6"/>
<rect id="Rectangle 14" x="45.6201" y="38.96" width="8.96" height="5.6" rx="2.8" fill="#83C9B6"/>
<rect id="Rectangle 18" x="45.6201" y="46.8" width="8.96" height="5.6" rx="2.8" fill="#83C9B6"/>
<rect id="Rectangle 22" x="45.6201" y="54.64" width="8.96" height="5.6" rx="2.8" fill="#83C9B6"/>
<rect id="Rectangle 15" x="56.8201" y="38.96" width="8.96" height="5.6" rx="2.8" fill="#83C9B6"/>
<rect id="Rectangle 19" x="56.8201" y="46.8" width="8.96" height="5.6" rx="2.8" fill="#83C9B6"/>
<rect id="Rectangle 23" x="56.8201" y="54.64" width="8.96" height="5.6" rx="2.8" fill="#83C9B6"/>
<path id="Rectangle 11" d="M17.0001 30.04C17.0001 25.3456 20.8057 21.54 25.5001 21.54H63.5001C68.1945 21.54 72.0001 25.3456 72.0001 30.04V32.86H17.0001V30.04Z" stroke="#83C9B6"/>
<rect id="Rectangle 25" x="56.8801" y="16.5" width="7.96" height="4.6" rx="2.3" transform="rotate(90 56.8801 16.5)" fill="white" stroke="#83C9B6"/>
<rect id="Rectangle 24" x="35.0401" y="16.5" width="7.96" height="4.6" rx="2.3" transform="rotate(90 35.0401 16.5)" fill="white" stroke="#83C9B6"/>
</g>
</g>
</svg>
