 <svg  id="svg" fill="#000000" stroke="#000000" width="200px" height="200px" version="1.1"
            viewBox="144 144 512 512" xmlns="http://www.w3.org/2000/svg">
            <g id="IconSvg_bgCarrier" stroke-width="0"></g>
            <g id="IconSvg_tracerCarrier" stroke-linecap="round" stroke-linejoin="round" stroke="#CCCCCC"></g>
            <g id="IconSvg_iconCarrier">
              <path xmlns="http://www.w3.org/2000/svg"
                d="m536.22 411.16h-70.199l-8.9766-128.57c-0.5-6.1953 4.4375-13.336 7.4375-16.586 0.054687-0.054688 0.13281-0.14453 0.17969-0.20312 16.906-19.492 15.973-38.535 15.539-42.594-3.1719-42.004-67.359-44.137-80.203-44.137-0.71875 0-17.801 0.050781-35.43 4.2539-19.406 4.625-42.906 15.301-44.773 39.887-0.42969 4.0508-1.3594 23.113 15.789 42.859 0.054687 0.066406 0.11719 0.13672 0.17578 0.19531 2.1758 2.3477 7.707 9.8555 7.1875 16.32l-8.9766 128.57-70.199-0.003906c-4.1758 0-7.5586 3.3867-7.5586 7.5586v19.977c0 0.10547 0 0.22266 0.003906 0.32812l6.4141 146.04-2.1211 4.2422c-0.52344 1.0469-0.79688 2.207-0.79688 3.3789v20.672c0 4.1719 3.3789 7.5586 7.5586 7.5586h58.121c3.0234 0 5.7578-1.7969 6.9492-4.5781l1.3867-3.2461c0.30078 0.039062 0.60938 0.074218 0.91797 0.097656 0.27344 0.023437 0.66016 0.039062 1.043 0.039062 1.7383 0 3.4102-0.30859 4.9688-0.875l2.2773 4.4492c1.2891 2.5273 3.8906 4.1172 6.7266 4.1172l50.336-0.003906h50.336c2.8359 0 5.4375-1.5859 6.7266-4.1094l2.2773-4.4531c1.5625 0.57031 3.2344 0.875 4.9688 0.875 0.38672 0 0.76562-0.015625 1.1523-0.050781 0.27344-0.015625 0.53906-0.046875 0.80469-0.082031l1.3789 3.2344c1.1836 2.7812 3.918 4.5859 6.9492 4.5859h58.121c4.1719 0 7.5586-3.3867 7.5586-7.5586v-20.672c0-1.168-0.27734-2.332-0.79688-3.3789l-2.1211-4.2422 6.4141-146.04c0.003907-0.10547 0.003907-0.22266 0.003907-0.32812v-19.977c0.007812-4.168-3.3789-7.5508-7.5508-7.5508zm-269.93 27.531v-17.457h72.031l-11.516 165.03-54.031 0.003907zm57.438 172.14h-53.938v-17.551l2.2461-4.4922h54.586l-0.62891 9.0078c-0.13281 1.8203 0.27344 3.5938 1.1016 5.168zm29.184 0 7.6016-11.098h78.969l7.6016 11.098zm96.457-1.1211-8.1875-11.949c-0.23828-0.33594-0.625-0.54297-1.0391-0.54297l-80.293-0.003906c-0.41797 0-0.80469 0.20703-1.0391 0.54297l-8.1875 11.949-5.3008-10.352c0.003906-0.074219 0.03125-0.13672 0.035156-0.21094l12.418-177.91h84.422l12.426 177.91c0.003906 0.074218 0.03125 0.14062 0.035156 0.21484zm-95.566-359.94c-1.2734-1.4727-2.3477-2.9062-3.3164-4.3164 0.015625-1.0586 0.085938-1.9141 0.14453-2.3438 1.8125-24.027 44.5-24.723 49.363-24.723 4.8633 0 47.551 0.69531 49.379 24.797 0.058594 0.41406 0.125 1.2578 0.14062 2.3125-0.88281 1.2695-1.8242 2.5586-2.9688 3.8789-0.62891 0.64844-15.426 16.164-13.895 34.996l9.2031 131.82h-6.9219l-9.1914-131.19c-0.95313-11.875 8.7422-21.945 8.8867-22.098 8.7773-9.9297 7.3789-18.285 7.3242-18.551l-0.066406-0.53906c-0.95312-14.664-30.566-17.91-41.898-17.922-11.332 0.011718-40.945 3.2539-41.891 17.844l-0.082031 0.62891c-0.058594 0.35156-1.3438 8.7109 7.543 18.762 0.10156 0.10156 9.6289 10.105 8.6719 21.945l-9.082 131.12h-7.0195l9.1953-131.71c1.5625-19.266-13.504-34.695-13.52-34.707zm-5.4922-7.918c-4.9062-8.9727-4.2383-15.734-4.2305-15.754 0.050781-0.30859 0.085938-0.625 0.097657-0.88672 1.0586-16.34 38.074-21.66 55.828-21.68 17.75 0 54.754 5.3008 55.816 21.68l0.074219 0.71875c0.046874 0.35938 0.73437 7.1602-4.1914 16.051-3.0195-25.324-46.672-26.105-51.707-26.105s-48.625 0.78516-51.688 25.977zm84.102 174.34h-64.734l9.0703-130.93c1.0586-13.059-9.2891-23.809-9.3398-23.855-8.0273-9.0781-6.9062-16.547-6.8867-16.672l0.097656-0.75391c0.76562-11.73 26.867-15.547 39.387-15.562 12.52 0.011719 38.621 3.8359 39.395 15.625l0.082031 0.68359c0.015625 0.074219 1.2109 7.5352-6.6797 16.469-0.43359 0.44141-10.602 11.008-9.5508 24zm35.426 185.34c-0.22266 0.25-0.51953 0.40234-0.77734 0.60547-0.71484 0.52734-1.5234 0.93359-2.457 0.99219l-0.29688 0.011719c-1.9961 0-3.6719-1.3086-4.3164-3.1172-0.14453-0.39453-0.30078-0.78906-0.32813-1.2305l-0.5625-8.082-11.836-169.48-0.34766-5.0391-9.2305-132.2c-0.26172-3.1992 0.03125-6.293 0.66016-9.2148 0.59375-2.7461 1.4922-5.3438 2.5352-7.7227 2.0664-4.6914 4.6836-8.5078 6.6367-11.023 1.4766-1.8945 2.5781-3.0625 2.7539-3.25 0.4375-0.50781 0.82031-1.0078 1.2305-1.5117 10.832-13.48 9.4609-25.488 9.3516-26.383-1.4062-21.648-44.395-26.391-60.852-26.391-16.449 0.015625-59.449 4.793-60.906 26.863-0.070312 0.51562-1.4492 12.168 9.4297 25.895 0.51562 0.64844 1.0234 1.293 1.5938 1.9531 0.035156 0.035156 1.043 1.1094 2.4492 2.9414 1.8398 2.3945 4.3633 6.1055 6.4023 10.688 1.0586 2.3789 1.9688 4.9766 2.5938 7.7422 0.67969 3.0234 1.0117 6.2227 0.74219 9.5312l-9.2188 132.09-0.35156 5.0391-11.828 169.47-0.5625 8.0859c-0.03125 0.4375-0.1875 0.83203-0.32812 1.2227-0.65625 1.7969-2.3633 3.1094-4.625 3.1094h-0.03125c-0.90625-0.058594-1.7031-0.45312-2.418-0.98828-0.26172-0.19531-0.55859-0.34766-0.78125-0.60547-0.81641-0.94141-1.2188-2.1445-1.1289-3.3867l0.36328-5.2031 0.29297-4.1562 0.17578-2.5195 11.523-165.03 0.35156-5.0391 9.2695-132.79c0.96094-11.957-8.7344-22.781-9.8008-23.93-14.629-16.848-13.703-32.344-13.355-35.383 1.0625-14.727 13.887-25.434 37.066-30.965 16.477-3.9375 32.406-3.9844 33.078-3.9844 6.9219 0 67.719 0.97656 70.172 35.035 0.33203 2.9375 1.2812 18.418-13.098 34.988-1.8438 2.0039-11.008 12.586-10.078 24.117l9.2812 132.9 0.34766 5.0391 11.516 165.03 0.17578 2.5195 0.29297 4.1406 0.36328 5.2188c0.089844 1.25-0.30859 2.4531-1.1328 3.3984zm62.363 9.2969h-53.938l-3.3672-7.8711c0.82812-1.5781 1.2305-3.3438 1.1016-5.1641l-0.62891-9.0078h54.586l2.2422 4.4922zm3.5-172.25-6.4844 147.68-54.027-0.003906-11.516-165.03h72.031z" />

            </g>
          </svg>