<svg width="651" height="670" viewBox="0 0 651 670" fill="none" xmlns="http://www.w3.org/2000/svg">
<path fill-rule="evenodd" clip-rule="evenodd" d="M279.703 831V573.29C362.092 426.465 599.009 473.877 650.645 188.256V448.642C642.672 662.38 298.307 678.057 279.703 831Z" fill="white" fill-opacity="0.5"/>
<path fill-rule="evenodd" clip-rule="evenodd" d="M569.327 0V173.832C569.327 387.103 307.695 362.598 304.287 503.501V359.534C300.123 117.93 463.311 200.252 569.327 0Z" fill="white" fill-opacity="0.5"/>
<path fill-rule="evenodd" clip-rule="evenodd" d="M-92.3535 448.642V188.256C-40.7177 474.26 196.959 426.083 278.589 573.673V831C260.364 678.057 -84.3803 662.38 -92.3535 448.642Z" fill="white" fill-opacity="0.5"/>
<path fill-rule="evenodd" clip-rule="evenodd" d="M268.628 462.362C142.864 239.939 -34.4186 316.373 36.0397 403.125C1.31205 378.267 -27.9289 346.414 -49.8363 309.578C-71.7438 272.741 -85.8418 231.722 -91.2397 189.11C-91.2397 78.6629 98.1642 79.0451 178.093 140.957C208.486 163.505 232.728 193.448 248.558 227.996C264.388 262.544 271.293 300.573 268.628 338.539V462.362ZM277.341 570.898C277.519 571.522 277.519 572.185 277.341 572.809C277.341 572.809 277.341 572.809 277.341 570.516V570.898ZM-22.2967 585.038L-16.9933 590.389C-24.5695 583.51 -30.6304 579.306 -22.2967 585.038Z" fill="white" fill-opacity="0.5"/>
</svg>
