<svg width="43" height="36" viewBox="0 0 43 36" fill="none" xmlns="http://www.w3.org/2000/svg">
<path d="M34.156 0.0440514C36.9253 0.0440516 39.114 1.07138 40.722 3.12605C42.2407 5.18072 43 7.63739 43 10.4961C43 15.7667 41.8387 20.4121 39.516 24.4321C37.104 28.4521 33.1287 32.2934 27.59 35.9561L25.178 32.7401C28.126 30.7747 30.7167 28.3627 32.95 25.5041C35.094 22.7347 36.166 19.5634 36.166 15.9901L34.156 16.3921C31.5653 16.3921 29.5553 15.6327 28.126 14.1141C26.6967 12.6847 25.982 10.7194 25.982 8.21805C25.982 5.71672 26.6967 3.70672 28.126 2.18805C29.5553 0.758719 31.5653 0.0440511 34.156 0.0440514ZM9.768 0.0440492C12.5373 0.0440495 14.726 1.07138 16.334 3.12605C17.8527 5.18072 18.612 7.63739 18.612 10.4961C18.612 15.7667 17.4507 20.4121 15.128 24.4321C12.716 28.4521 8.74067 32.2934 3.202 35.9561L0.789997 32.7401C3.738 30.7747 6.32867 28.3627 8.562 25.5041C10.706 22.7347 11.778 19.5634 11.778 15.9901L9.768 16.3921C7.17733 16.3921 5.16733 15.6327 3.738 14.1141C2.30866 12.6847 1.594 10.7194 1.594 8.21805C1.594 5.71672 2.30867 3.70671 3.738 2.18805C5.16733 0.758717 7.17733 0.044049 9.768 0.0440492Z" fill="#FBFBFB"/>
</svg>
