<svg width="28" height="28" viewBox="0 0 28 28" fill="none" xmlns="http://www.w3.org/2000/svg">
<g id="Property 1=Search_active">
<path id="Union" fill-rule="evenodd" clip-rule="evenodd" d="M19 11.5C19 15.6421 15.6421 19 11.5 19C7.35786 19 4 15.6421 4 11.5C4 7.35786 7.35786 4 11.5 4C15.6421 4 19 7.35786 19 11.5ZM16.8767 18.0838C15.4118 19.2815 13.5398 20 11.5 20C6.80558 20 3 16.1944 3 11.5C3 6.80558 6.80558 3 11.5 3C16.1944 3 20 6.80558 20 11.5C20 13.7945 19.0908 15.8767 17.6131 17.406L24.3536 24.1464C24.5488 24.3417 24.5488 24.6583 24.3536 24.8536C24.1583 25.0488 23.8417 25.0488 23.6464 24.8536L16.8767 18.0838Z" fill="#71716B"/>
</g>
</svg>
