<svg width="28" height="28" viewBox="0 0 28 28" fill="none" xmlns="http://www.w3.org/2000/svg">
<g id="Phone">
<path id="Vector 4" d="M11.7525 6.53284L9.1805 2.03188C8.87257 1.49301 8.15132 1.36054 7.64844 1.72428C6.24247 2.74125 5.04057 3.41178 4.57038 4.73825C1.66337 12.9393 10.5366 23.4903 16.1003 26.3971C17.6301 27.1963 19.3783 26.7211 20.8805 25.8711L22.5767 24.9113C23.0935 24.6189 23.2431 23.943 22.8979 23.4598L19.5443 18.7647C19.1895 18.268 18.4728 18.1992 17.9916 18.5747C17.4416 19.004 16.7166 19.4946 16.0674 19.6913C13.9161 20.3428 8.2946 10.4528 9.24324 9.41106C9.7491 8.85557 10.5929 8.36102 11.2705 8.02037C11.817 7.74558 12.056 7.06397 11.7525 6.53284Z" fill="#474747"/>
</g>
</svg>
